<?xml version="1.0" encoding="UTF-8"?>
<svg width="280" height="600" viewBox="0 0 280 600" xmlns="http://www.w3.org/2000/svg"
     font-family="system-ui, -apple-system, 'Segoe UI', Arial, sans-serif">
  <defs>
    <clipPath id="m-screen">
      <rect x="8" y="8" width="264" height="584" rx="26"/>
    </clipPath>
  </defs>

  <!-- Phone shell -->
  <rect width="280" height="600" rx="32" fill="#0D0D22"/>
  <rect x="1.5" y="1.5" width="277" height="597" rx="30.5" fill="none" stroke="#22224A" stroke-width="1"/>

  <g clip-path="url(#m-screen)">
    <!-- App background -->
    <rect x="8" y="8" width="264" height="584" fill="#0F1729"/>

    <!-- Status bar -->
    <rect x="8" y="8" width="264" height="32" fill="#0C1020"/>
    <rect x="113" y="8" width="54" height="20" rx="10" fill="#0D0D22"/>
    <text x="22" y="27" fill="#50607A" font-size="10">9:41</text>
    <text x="257" y="27" fill="#50607A" font-size="10" text-anchor="end">100 %</text>

    <!-- App title + status pill -->
    <text x="20" y="70" fill="#E8EAF0" font-size="24" font-weight="700">Hōsō</text>
    <rect x="198" y="52" width="58" height="26" rx="13" fill="#192040" stroke="#2A3660" stroke-width="1"/>
    <text x="227" y="70" fill="#A0A8C4" font-size="11" text-anchor="middle">Prêt</text>

    <!-- Subtitle -->
    <text x="20" y="90" fill="#A0A8C4" font-size="12">Stream mobile → Twitch</text>

    <!-- ── DESTINATION card (expanded) ── -->
    <rect x="12" y="106" width="256" height="124" rx="13" fill="#192040" stroke="#2A3660" stroke-width="1"/>
    <text x="24" y="128" fill="#3DC3FF" font-size="11" font-weight="600" letter-spacing="1.2">DESTINATION</text>
    <text x="253" y="127" fill="#50607A" font-size="13" text-anchor="end">▲</text>
    <line x1="24" y1="136" x2="256" y2="136" stroke="#222F50" stroke-width="0.8"/>
    <!-- Preset dropdown -->
    <rect x="20" y="142" width="240" height="34" rx="8" fill="#0F1729" stroke="#2A3660" stroke-width="1"/>
    <text x="34" y="164" fill="#E8EAF0" font-size="12">Twitch perso</text>
    <text x="248" y="163" fill="#50607A" font-size="11" text-anchor="end">▼</text>
    <!-- Buttons row -->
    <rect x="20" y="184" width="72" height="30" rx="7" fill="none" stroke="#3DC3FF" stroke-width="1.2"/>
    <text x="56" y="204" fill="#3DC3FF" font-size="10" text-anchor="middle">+ Nouveau</text>
    <rect x="98" y="184" width="72" height="30" rx="7" fill="none" stroke="#2A3660" stroke-width="1"/>
    <text x="134" y="204" fill="#C8D0E8" font-size="10" text-anchor="middle">Modifier</text>
    <rect x="176" y="184" width="80" height="30" rx="7" fill="none" stroke="#F87171" stroke-width="1"/>
    <text x="216" y="204" fill="#F87171" font-size="10" text-anchor="middle">Supprimer</text>

    <!-- ── STREAM card (collapsed) ── -->
    <rect x="12" y="240" width="256" height="44" rx="13" fill="#192040" stroke="#2A3660" stroke-width="1"/>
    <text x="24" y="267" fill="#3DC3FF" font-size="11" font-weight="600" letter-spacing="1.2">STREAM</text>
    <text x="253" y="265" fill="#50607A" font-size="13" text-anchor="end">▼</text>

    <!-- ── AUDIO card (collapsed) ── -->
    <rect x="12" y="294" width="256" height="44" rx="13" fill="#192040" stroke="#2A3660" stroke-width="1"/>
    <text x="24" y="321" fill="#3DC3FF" font-size="11" font-weight="600" letter-spacing="1.2">AUDIO</text>
    <text x="253" y="319" fill="#50607A" font-size="13" text-anchor="end">▼</text>

    <!-- ── FOOTER ── -->
    <rect x="8" y="462" width="264" height="130" fill="#0F1729"/>
    <line x1="8" y1="465" x2="272" y2="465" stroke="#1A2040" stroke-width="1"/>

    <!-- PASSER EN DIRECT CTA -->
    <rect x="16" y="474" width="248" height="56" rx="15" fill="#3DC3FF"/>
    <text x="140" y="509" fill="#0D1629" font-size="15" font-weight="700" text-anchor="middle" letter-spacing="0.5">PASSER EN DIRECT</text>

    <!-- Quit -->
    <text x="140" y="548" fill="#50607A" font-size="12" text-anchor="middle">Quitter l'application</text>

    <!-- Home bar -->
    <rect x="110" y="580" width="60" height="4" rx="2" fill="#1A2244"/>
  </g>
</svg>
